<mxfile host="app.diagrams.net" modified="2024-03-19T14:42:54.825Z" agent="Mozilla/5.0 (Windows NT 10.0; Win64; x64) AppleWebKit/537.36 (KHTML, like Gecko) Chrome/120.0.0.0 YaBrowser/24.1.0.0 Safari/537.36" etag="lisKjuslXX7Te0pMWSy5" version="24.0.7" type="device">
  <diagram name="Страница — 1" id="TGhD-Kf6mHugT50XbNq1">
    <mxGraphModel dx="669" dy="398" grid="1" gridSize="10" guides="1" tooltips="1" connect="1" arrows="1" fold="1" page="1" pageScale="1" pageWidth="827" pageHeight="1169" math="0" shadow="0">
      <root>
        <mxCell id="0" />
        <mxCell id="1" parent="0" />
        <mxCell id="88pbtU2VVZa3axsiVQ-k-11" value="" style="rounded=0;whiteSpace=wrap;html=1;fillColor=#f8cecc;strokeColor=#b85450;" vertex="1" parent="1">
          <mxGeometry x="120" y="370" width="130" height="40" as="geometry" />
        </mxCell>
        <mxCell id="88pbtU2VVZa3axsiVQ-k-12" value="" style="rounded=0;whiteSpace=wrap;html=1;fillColor=#d5e8d4;strokeColor=#82b366;" vertex="1" parent="1">
          <mxGeometry x="250" y="370" width="130" height="40" as="geometry" />
        </mxCell>
        <mxCell id="88pbtU2VVZa3axsiVQ-k-13" value="" style="rounded=0;whiteSpace=wrap;html=1;fillColor=#f8cecc;strokeColor=#b85450;" vertex="1" parent="1">
          <mxGeometry x="380" y="370" width="130" height="40" as="geometry" />
        </mxCell>
        <mxCell id="88pbtU2VVZa3axsiVQ-k-3" value="" style="endArrow=none;html=1;rounded=0;strokeWidth=2;" edge="1" parent="1">
          <mxGeometry width="50" height="50" relative="1" as="geometry">
            <mxPoint x="380" y="420" as="sourcePoint" />
            <mxPoint x="380" y="360" as="targetPoint" />
          </mxGeometry>
        </mxCell>
        <mxCell id="88pbtU2VVZa3axsiVQ-k-2" value="" style="endArrow=none;html=1;rounded=0;strokeWidth=2;" edge="1" parent="1">
          <mxGeometry width="50" height="50" relative="1" as="geometry">
            <mxPoint x="250" y="420" as="sourcePoint" />
            <mxPoint x="250" y="360" as="targetPoint" />
          </mxGeometry>
        </mxCell>
        <mxCell id="88pbtU2VVZa3axsiVQ-k-5" value="&amp;lt; 2" style="text;html=1;align=center;verticalAlign=middle;whiteSpace=wrap;rounded=0;" vertex="1" parent="1">
          <mxGeometry x="155" y="375" width="60" height="30" as="geometry" />
        </mxCell>
        <mxCell id="88pbtU2VVZa3axsiVQ-k-6" value="&amp;gt; 700" style="text;html=1;align=center;verticalAlign=middle;whiteSpace=wrap;rounded=0;" vertex="1" parent="1">
          <mxGeometry x="410" y="375" width="60" height="30" as="geometry" />
        </mxCell>
        <mxCell id="88pbtU2VVZa3axsiVQ-k-15" value="2 &amp;lt; и &amp;lt; 700" style="text;html=1;align=center;verticalAlign=middle;whiteSpace=wrap;rounded=0;" vertex="1" parent="1">
          <mxGeometry x="275" y="375" width="80" height="30" as="geometry" />
        </mxCell>
        <mxCell id="88pbtU2VVZa3axsiVQ-k-16" value="Допустимые значения" style="text;html=1;align=center;verticalAlign=middle;whiteSpace=wrap;rounded=0;" vertex="1" parent="1">
          <mxGeometry x="285" y="280" width="60" height="30" as="geometry" />
        </mxCell>
        <mxCell id="88pbtU2VVZa3axsiVQ-k-17" value="Недопустимые значения" style="text;html=1;align=center;verticalAlign=middle;whiteSpace=wrap;rounded=0;" vertex="1" parent="1">
          <mxGeometry x="285" y="450" width="60" height="30" as="geometry" />
        </mxCell>
        <mxCell id="88pbtU2VVZa3axsiVQ-k-18" value="" style="endArrow=classic;html=1;rounded=0;" edge="1" parent="1">
          <mxGeometry width="50" height="50" relative="1" as="geometry">
            <mxPoint x="370" y="460" as="sourcePoint" />
            <mxPoint x="410" y="420" as="targetPoint" />
          </mxGeometry>
        </mxCell>
        <mxCell id="88pbtU2VVZa3axsiVQ-k-20" value="" style="endArrow=classic;html=1;rounded=0;" edge="1" parent="1">
          <mxGeometry width="50" height="50" relative="1" as="geometry">
            <mxPoint x="314.78" y="320" as="sourcePoint" />
            <mxPoint x="314.78" y="370" as="targetPoint" />
          </mxGeometry>
        </mxCell>
        <mxCell id="88pbtU2VVZa3axsiVQ-k-22" value="" style="endArrow=classic;html=1;rounded=0;" edge="1" parent="1">
          <mxGeometry width="50" height="50" relative="1" as="geometry">
            <mxPoint x="260" y="460" as="sourcePoint" />
            <mxPoint x="220" y="420" as="targetPoint" />
          </mxGeometry>
        </mxCell>
      </root>
    </mxGraphModel>
  </diagram>
</mxfile>
